<svg width="20" height="20" viewBox="0 0 20 20" fill="none" xmlns="http://www.w3.org/2000/svg">
<g id="Shopping cart" clip-path="url(#clip0_30_217)">
<path id="Vector" d="M5.83325 15.0001C4.91658 15.0001 4.17492 15.7501 4.17492 16.6667C4.17492 17.5834 4.91658 18.3334 5.83325 18.3334C6.74992 18.3334 7.49992 17.5834 7.49992 16.6667C7.49992 15.7501 6.74992 15.0001 5.83325 15.0001ZM0.833252 1.66675V3.33341H2.49992L5.49992 9.65842L4.37492 11.7001C4.24159 11.9334 4.16659 12.2084 4.16659 12.5001C4.16659 13.4167 4.91658 14.1667 5.83325 14.1667H15.8333V12.5001H6.18325C6.06659 12.5001 5.97492 12.4084 5.97492 12.2917L5.99992 12.1917L6.74992 10.8334H12.9583C13.5833 10.8334 14.1333 10.4917 14.4166 9.97508L17.3999 4.56675C17.4666 4.45008 17.4999 4.30841 17.4999 4.16675C17.4999 3.70841 17.1249 3.33341 16.6666 3.33341H4.34159L3.55825 1.66675H0.833252ZM14.1666 15.0001C13.2499 15.0001 12.5083 15.7501 12.5083 16.6667C12.5083 17.5834 13.2499 18.3334 14.1666 18.3334C15.0833 18.3334 15.8333 17.5834 15.8333 16.6667C15.8333 15.7501 15.0833 15.0001 14.1666 15.0001Z" fill="#909090"/>
</g>
<defs>
<clipPath id="clip0_30_217">
<rect width="20" height="20" fill="white"/>
</clipPath>
</defs>
</svg>
